{
  "accessors": [
    {
      "bufferView": 2,
      "componentType": 5126,
      "count": 8545,
      "max": [
        4.359045505523682,
        0.9961499571800232,
        6.877019882202148
      ],
      "min": [
        -3.339817762374878,
        -4.729477405548096,
        -10.000000953674316
      ],
      "type": "VEC3"
    },
    {
      "bufferView": 2,
      "byteOffset": 102540,
      "componentType": 5126,
      "count": 8545,
      "max": [
        0.9996657371520996,
        0.9998084306716919,
        0.9997757077217102
      ],
      "min": [
        -0.9997578263282776,
        -0.9997957944869995,
        -0.9982780814170837
      ],
      "type": "VEC3"
    },
    {
      "bufferView": 1,
      "componentType": 5126,
      "count": 8545,
      "max": [
        0.99658203125,
        1.898085355758667
      ],
      "min": [
        0.00341796875,
        1.00341796875
      ],
      "type": "VEC2"
    },
    {
      "bufferView": 0,
      "componentType": 5125,
      "count": 47898,
      "type": "SCALAR"
    },
    {
      "bufferView": 2,
      "byteOffset": 205080,
      "componentType": 5126,
      "count": 387,
      "max": [
        0.8553143739700317,
        0.5789938569068909,
        6.365118980407715
      ],
      "min": [
        -0.7304896116256714,
        -0.36585885286331177,
        3.2249562740325928
      ],
      "type": "VEC3"
    },
    {
      "bufferView": 2,
      "byteOffset": 209724,
      "componentType": 5126,
      "count": 387,
      "max": [
        1.0,
        1.0,
        1.0
      ],
      "min": [
        -1.0,
        -1.0,
        -1.0
      ],
      "type": "VEC3"
    },
    {
      "bufferView": 1,
      "byteOffset": 68360,
      "componentType": 5126,
      "count": 387,
      "max": [
        0.893269956111908,
        1.9849905967712402
      ],
      "min": [
        0.07207489013671875,
        1.9365050792694092
      ],
      "type": "VEC2"
    },
    {
      "bufferView": 0,
      "byteOffset": 191592,
      "componentType": 5125,
      "count": 3024,
      "type": "SCALAR"
    }
  ],
  "asset": {
    "extras": {
      "author": "AVINAS (https://sketchfab.com/AVINAS)",
      "license": "CC-BY-4.0 (http://creativecommons.org/licenses/by/4.0/)",
      "source": "https://sketchfab.com/3d-models/humpback-whale-2a83b52bfe7f47a1b6c404a90b100dca",
      "title": "Humpback whale"
    },
    "generator": "Sketchfab-11.22.0",
    "version": "2.0"
  },
  "bufferViews": [
    {
      "buffer": 0,
      "byteLength": 203688,
      "name": "floatBufferViews",
      "target": 34963
    },
    {
      "buffer": 0,
      "byteLength": 71456,
      "byteOffset": 203688,
      "byteStride": 8,
      "name": "floatBufferViews",
      "target": 34962
    },
    {
      "buffer": 0,
      "byteLength": 214368,
      "byteOffset": 275144,
      "byteStride": 12,
      "name": "floatBufferViews",
      "target": 34962
    }
  ],
  "buffers": [
    {
      "byteLength": 489512,
      "uri": "scene.bin"
    }
  ],
  "extensionsUsed": [
    "KHR_materials_clearcoat"
  ],
  "images": [
    {
      "uri": "textures/BottlenoseDolphin_baseColor.jpeg"
    },
    {
      "uri": "textures/BottlenoseDolphin_clearcoat_roughness.png"
    },
    {
      "uri": "textures/BottlenoseDolphin_clearcoat_normal.png"
    }
  ],
  "materials": [
    {
      "doubleSided": true,
      "extensions": {
        "KHR_materials_clearcoat": {
          "clearcoatFactor": 0.3205135759346502,
          "clearcoatNormalTexture": {
            "index": 2
          },
          "clearcoatRoughnessFactor": 1.0,
          "clearcoatRoughnessTexture": {
            "index": 1
          }
        }
      },
      "name": "BottlenoseDolphin",
      "pbrMetallicRoughness": {
        "baseColorTexture": {
          "index": 0
        },
        "metallicFactor": 0.0,
        "roughnessFactor": 0.9577051494623774
      }
    },
    {
      "doubleSided": true,
      "name": "BottlenoseDolphin_0",
      "pbrMetallicRoughness": {
        "baseColorTexture": {
          "index": 0
        },
        "metallicFactor": 0.0,
        "roughnessFactor": 0.9577051494623774
      }
    }
  ],
  "meshes": [
    {
      "name": "desirefx.me_001_BottlenoseDolphin_0",
      "primitives": [
        {
          "attributes": {
            "NORMAL": 1,
            "POSITION": 0,
            "TEXCOORD_0": 2
          },
          "indices": 3,
          "material": 0,
          "mode": 4
        }
      ]
    },
    {
      "name": "desirefx.me_002_BottlenoseDolphin_0",
      "primitives": [
        {
          "attributes": {
            "NORMAL": 5,
            "POSITION": 4,
            "TEXCOORD_0": 6
          },
          "indices": 7,
          "material": 1,
          "mode": 4
        }
      ]
    }
  ],
  "nodes": [
    {
      "children": [
        1
      ],
      "matrix": [
        1.0,
        0.0,
        0.0,
        0.0,
        0.0,
        2.220446049250313e-16,
        -1.0,
        0.0,
        0.0,
        1.0,
        2.220446049250313e-16,
        0.0,
        0.0,
        0.0,
        0.0,
        1.0
      ],
      "name": "Sketchfab_model"
    },
    {
      "children": [
        2
      ],
      "matrix": [
        1.0,
        0.0,
        0.0,
        0.0,
        0.0,
        0.0,
        1.0,
        0.0,
        0.0,
        -1.0,
        0.0,
        0.0,
        0.0,
        0.0,
        0.0,
        1.0
      ],
      "name": "Humpback whlae.fbx"
    },
    {
      "children": [
        3,
        5
      ],
      "name": "RootNode"
    },
    {
      "children": [
        4
      ],
      "matrix": [
        1.0,
        0.0,
        0.0,
        0.0,
        0.0,
        0.999999999999999,
        4.371138828673792e-08,
        0.0,
        0.0,
        -4.371138828673792e-08,
        0.999999999999999,
        0.0,
        0.0,
        0.0,
        0.0,
        1.0
      ],
      "name": "desirefx.me_001"
    },
    {
      "mesh": 0,
      "name": "desirefx.me_001_BottlenoseDolphin_0"
    },
    {
      "children": [
        6
      ],
      "matrix": [
        1.0,
        0.0,
        0.0,
        0.0,
        0.0,
        0.999999999999999,
        4.371138828673792e-08,
        0.0,
        0.0,
        -4.371138828673792e-08,
        0.999999999999999,
        0.0,
        0.0,
        0.0,
        0.0,
        1.0
      ],
      "name": "desirefx.me_002"
    },
    {
      "mesh": 1,
      "name": "desirefx.me_002_BottlenoseDolphin_0"
    }
  ],
  "samplers": [
    {
      "magFilter": 9729,
      "minFilter": 9987,
      "wrapS": 10497,
      "wrapT": 10497
    }
  ],
  "scene": 0,
  "scenes": [
    {
      "name": "Sketchfab_Scene",
      "nodes": [
        0
      ]
    }
  ],
  "textures": [
    {
      "sampler": 0,
      "source": 0
    },
    {
      "sampler": 0,
      "source": 1
    },
    {
      "sampler": 0,
      "source": 2
    }
  ]
}
